<svg width="64" height="67" viewBox="0 0 64 67" fill="none" xmlns="http://www.w3.org/2000/svg">
<path d="M54.4001 3.35059H9.60008C6.08008 3.35059 3.20008 6.36559 3.20008 10.0506V56.9507C3.20008 60.6391 6.08008 63.6507 9.60008 63.6507H32.0001V40.2007H25.6001V31.9094H32.0001V25.0419C32.0001 17.7925 35.8785 12.7005 44.0513 12.7005L49.8209 12.7072V21.4339H45.9905C42.8097 21.4339 41.6001 23.933 41.6001 26.2512V31.9128H49.8177L48.0001 40.2007H41.6001V63.6507H54.4001C57.9201 63.6507 60.8001 60.6391 60.8001 56.9507V10.0506C60.8001 6.36559 57.9201 3.35059 54.4001 3.35059Z" fill="white"/>
</svg>
