<svg width="77" height="77" viewBox="0 0 77 77" fill="none" xmlns="http://www.w3.org/2000/svg">
<path d="M41.7982 6.4165C45.4076 6.42613 47.2395 6.44538 48.8212 6.4903L49.4436 6.51275C50.1623 6.53842 50.8713 6.5705 51.728 6.609C55.1416 6.76942 57.4709 7.30842 59.5146 8.10088C61.6321 8.9158 63.4159 10.0195 65.1998 11.8001C66.8318 13.4034 68.0943 15.3436 68.899 17.4853C69.6914 19.529 70.2304 21.8582 70.3908 25.2751C70.4293 26.1285 70.4614 26.8375 70.4871 27.5594L70.5063 28.1818C70.5545 29.7603 70.5737 31.5923 70.5801 35.2017L70.5833 37.5951V41.798C70.5911 44.1382 70.5666 46.4783 70.5095 48.8178L70.4903 49.4403C70.4646 50.1621 70.4325 50.8712 70.394 51.7246C70.2336 55.1415 69.6882 57.4675 68.899 59.5144C68.0943 61.6561 66.8318 63.5963 65.1998 65.1996C63.5965 66.8316 61.6562 68.0941 59.5146 68.8988C57.4709 69.6913 55.1416 70.2303 51.728 70.3907L49.4436 70.4869L48.8212 70.5062C47.2395 70.5511 45.4076 70.5735 41.7982 70.58L39.4048 70.5832H35.205C32.8638 70.5914 30.5226 70.5668 28.182 70.5094L27.5596 70.4901C26.798 70.4613 26.0365 70.4281 25.2753 70.3907C21.8616 70.2303 19.5323 69.6913 17.4854 68.8988C15.3449 68.0937 13.4059 66.8313 11.8035 65.1996C10.1703 63.5966 8.9067 61.6564 8.10106 59.5144C7.3086 57.4707 6.7696 55.1415 6.60918 51.7246L6.51293 49.4403L6.49689 48.8178C6.43775 46.4784 6.41101 44.1382 6.41668 41.798V35.2017C6.4078 32.8615 6.43133 30.5213 6.48726 28.1818L6.50972 27.5594C6.53539 26.8375 6.56747 26.1285 6.60597 25.2751C6.76639 21.8582 7.30539 19.5322 8.09785 17.4853C8.90537 15.3427 10.1711 13.4024 11.8067 11.8001C13.4081 10.1688 15.3461 8.90641 17.4854 8.10088C19.5323 7.30842 21.8584 6.76942 25.2753 6.609C26.1287 6.5705 26.8409 6.53842 27.5596 6.51275L28.182 6.4935C30.5215 6.4365 32.8617 6.4119 35.2018 6.41971L41.7982 6.4165ZM38.5 22.4582C34.2455 22.4582 30.1652 24.1483 27.1568 27.1567C24.1484 30.1651 22.4583 34.2453 22.4583 38.4998C22.4583 42.7544 24.1484 46.8346 27.1568 49.843C30.1652 52.8514 34.2455 54.5415 38.5 54.5415C42.7545 54.5415 46.8348 52.8514 49.8432 49.843C52.8516 46.8346 54.5417 42.7544 54.5417 38.4998C54.5417 34.2453 52.8516 30.1651 49.8432 27.1567C46.8348 24.1483 42.7545 22.4582 38.5 22.4582ZM38.5 28.8748C39.764 28.8746 41.0156 29.1234 42.1835 29.6069C43.3513 30.0904 44.4125 30.7992 45.3064 31.6928C46.2003 32.5864 46.9094 33.6474 47.3933 34.815C47.8772 35.9827 48.1264 37.2343 48.1266 38.4982C48.1268 39.7622 47.8781 41.0138 47.3946 42.1817C46.9111 43.3495 46.2023 44.4107 45.3087 45.3046C44.415 46.1985 43.3541 46.9077 42.1864 47.3916C41.0187 47.8755 39.7672 48.1246 38.5032 48.1248C35.9505 48.1248 33.5024 47.1108 31.6973 45.3057C29.8923 43.5007 28.8782 41.0525 28.8782 38.4998C28.8782 35.9471 29.8923 33.499 31.6973 31.6939C33.5024 29.8889 35.9505 28.8748 38.5032 28.8748M55.347 17.6457C54.2833 17.6457 53.2633 18.0682 52.5112 18.8203C51.7591 19.5724 51.3365 20.5925 51.3365 21.6561C51.3365 22.7197 51.7591 23.7398 52.5112 24.4919C53.2633 25.244 54.2833 25.6665 55.347 25.6665C56.4106 25.6665 57.4307 25.244 58.1828 24.4919C58.9349 23.7398 59.3574 22.7197 59.3574 21.6561C59.3574 20.5925 58.9349 19.5724 58.1828 18.8203C57.4307 18.0682 56.4106 17.6457 55.347 17.6457Z" fill="white"/>
</svg>
