<svg width="77" height="77" viewBox="0 0 77 77" fill="none" xmlns="http://www.w3.org/2000/svg">
<path d="M60.9582 9.625C62.66 9.625 64.2921 10.301 65.4955 11.5044C66.6988 12.7078 67.3749 14.3399 67.3749 16.0417V60.9583C67.3749 62.6601 66.6988 64.2922 65.4955 65.4956C64.2921 66.699 62.66 67.375 60.9582 67.375H16.0415C14.3397 67.375 12.7076 66.699 11.5043 65.4956C10.3009 64.2922 9.62486 62.6601 9.62486 60.9583V16.0417C9.62486 14.3399 10.3009 12.7078 11.5043 11.5044C12.7076 10.301 14.3397 9.625 16.0415 9.625H60.9582ZM59.354 59.3542V42.35C59.354 39.5761 58.2521 36.9157 56.2906 34.9543C54.3291 32.9928 51.6688 31.8908 48.8949 31.8908C46.1678 31.8908 42.9915 33.5592 41.4515 36.0617V32.5004H32.5003V59.3542H41.4515V43.5371C41.4515 41.0667 43.4407 39.0454 45.9111 39.0454C47.1024 39.0454 48.2449 39.5186 49.0872 40.361C49.9296 41.2033 50.4028 42.3458 50.4028 43.5371V59.3542H59.354ZM22.0732 27.4633C23.5027 27.4633 24.8737 26.8955 25.8845 25.8846C26.8953 24.8738 27.4632 23.5029 27.4632 22.0733C27.4632 19.0896 25.0569 16.6512 22.0732 16.6512C20.6352 16.6512 19.256 17.2225 18.2392 18.2393C17.2224 19.2562 16.6511 20.6353 16.6511 22.0733C16.6511 25.0571 19.0894 27.4633 22.0732 27.4633ZM26.5328 59.3542V32.5004H17.6457V59.3542H26.5328Z" fill="white"/>
</svg>
