<svg width="58" height="58" viewBox="0 0 58 58" fill="none" xmlns="http://www.w3.org/2000/svg">
<path d="M50.8745 0H6.87546C5.0525 0.00169894 3.30468 0.726621 2.01565 2.01565C0.726621 3.30468 0.00169894 5.0525 0 6.87546V50.8745C0 54.67 3.08321 57.75 6.87546 57.75H50.8745C52.6975 57.7483 54.4453 57.0234 55.7343 55.7343C57.0234 54.4453 57.7483 52.6975 57.75 50.8745V6.87546C57.7483 5.0525 57.0234 3.30468 55.7343 2.01565C54.4453 0.726621 52.6975 0.00169894 50.8745 0ZM45.3819 25.195C43.3582 25.3915 41.322 24.9769 39.5363 24.0048C38.0301 23.1927 36.7508 22.017 35.8146 20.5847V36.4467C35.8146 38.7653 35.1271 41.0319 33.8389 42.9598C32.5507 44.8876 30.7198 46.3902 28.5777 47.2775C26.4355 48.1648 24.0784 48.397 21.8043 47.9447C19.5302 47.4923 17.4413 46.3758 15.8018 44.7363C14.1623 43.0967 13.0457 41.0078 12.5934 38.7338C12.141 36.4597 12.3732 34.1025 13.2605 31.9604C14.1478 29.8182 15.6504 27.9873 17.5783 26.6991C19.5062 25.411 21.7727 24.7234 24.0914 24.7234C24.3352 24.7234 24.5726 24.7459 24.8132 24.7587V30.5369C24.5726 30.508 24.3384 30.4631 24.0914 30.4631C22.5044 30.4631 20.9825 31.0935 19.8604 32.2157C18.7382 33.3378 18.1078 34.8597 18.1078 36.4467C18.1078 38.0336 18.7382 39.5555 19.8604 40.6777C20.9825 41.7998 22.5044 42.4302 24.0914 42.4302C27.396 42.4302 30.3155 39.8282 30.3155 36.5237L30.3733 9.58008H35.9012C36.1543 11.9813 37.2429 14.2173 38.977 15.8974C40.711 17.5775 42.9803 18.5949 45.3883 18.772V25.195" fill="white"/>
</svg>
