<svg width="154" height="81" viewBox="0 0 154 81" fill="none" xmlns="http://www.w3.org/2000/svg">
<path d="M18.2226 64.3381L16.9616 59.6321L22.195 58.2298L23.456 62.9358L18.2226 64.3381ZM13.0481 76.508C12.6965 76.6022 12.3142 76.6901 11.9013 76.7718C11.4884 76.8535 11.0583 76.9252 10.6111 76.9871L9.57468 72.3079C10.0147 72.219 10.4276 72.1373 10.8135 72.0629C11.2264 71.9812 11.5276 71.915 11.7169 71.8643C12.7717 71.5817 13.4978 70.9378 13.8952 69.9327C14.3196 68.9204 14.3289 67.6569 13.9231 66.1423L8.30309 45.1682L13.7393 43.7116L19.3593 64.6857C19.8521 66.5248 19.9119 68.2626 19.5387 69.8989C19.1926 71.528 18.4619 72.9123 17.3468 74.0517C16.239 75.2182 14.8061 76.037 13.0481 76.508ZM23.456 62.9358L22.195 58.2298C22.5196 58.1428 22.7939 58.3012 23.0181 58.705C23.2349 59.0817 23.4412 59.6351 23.6369 60.3654C23.8253 61.0686 23.9234 61.651 23.9312 62.1128C23.9389 62.5745 23.7806 62.8488 23.456 62.9358ZM7.30302 41.4359L6.06379 36.811L11.5 35.3544L12.7392 39.9793L7.30302 41.4359ZM44.484 57.3013L43.223 52.5954L47.5233 51.4431L48.7843 56.1491L44.484 57.3013ZM23.4693 62.9322L22.2083 58.2262L39.653 53.5519L38.2296 55.5422L36.2185 48.0369C35.7837 46.4142 34.9401 45.3213 33.6877 44.7582C32.4624 44.1879 30.7543 44.1963 28.5636 44.7833C27.9416 44.95 27.1041 45.2324 26.0513 45.6304C24.9912 46.0014 23.8509 46.4519 22.6305 46.9818L20.9508 42.8228C22.0413 42.2408 23.1562 41.6956 24.2955 41.1874C25.4618 40.672 26.6265 40.2585 27.7895 39.9469C30.0072 39.3526 32.0596 39.223 33.9466 39.558C35.8264 39.866 37.4316 40.6099 38.7623 41.7897C40.1201 42.9622 41.0707 44.5627 41.6142 46.5912L44.484 57.3013L23.4693 62.9322ZM23.4693 62.9322C23.1448 63.0192 22.8704 62.8608 22.6463 62.457C22.4221 62.0533 22.2159 61.4998 22.0274 60.7966C21.8318 60.0664 21.7337 59.4839 21.7332 59.0492C21.7254 58.5875 21.8838 58.3132 22.2083 58.2262L23.4693 62.9322ZM48.7843 56.1491L47.5233 51.4431C47.8208 51.3634 48.0817 51.5254 48.3058 51.9291C48.5497 52.2986 48.7695 52.8484 48.9652 53.5787C49.1536 54.2819 49.2382 54.868 49.2189 55.3369C49.2267 55.7986 49.0818 56.0694 48.7843 56.1491ZM33.6145 69.4754L32.3753 64.8505L37.8115 63.3939L39.0507 68.0188L33.6145 69.4754ZM69.7999 50.518L68.539 45.812L72.8393 44.6597L74.1002 49.3657L69.7999 50.518ZM48.7852 56.1488L47.5243 51.4428L64.9689 46.7686L63.5455 48.7588L61.5345 41.2535C61.0997 39.6308 60.2561 38.5379 59.0037 37.9748C57.7783 37.4046 56.0703 37.4129 53.8795 37.9999C53.2575 38.1666 52.42 38.449 51.3672 38.847C50.3071 39.218 49.1668 39.6685 47.9464 40.1984L46.2667 36.0395C47.3572 35.4574 48.4721 34.9122 49.6114 34.4041C50.7778 33.8886 51.9424 33.4751 53.1054 33.1635C55.3232 32.5692 57.3756 32.4396 59.2626 32.7746C61.1423 33.0826 62.7476 33.8265 64.0783 35.0063C65.436 36.1788 66.3866 37.7793 66.9301 39.8078L69.7999 50.518L48.7852 56.1488ZM48.7852 56.1488C48.4607 56.2358 48.1864 56.0774 47.9622 55.6737C47.7381 55.2699 47.5318 54.7164 47.3434 54.0132C47.1477 53.283 47.0496 52.7005 47.0491 52.2659C47.0413 51.8041 47.1997 51.5298 47.5243 51.4428L48.7852 56.1488ZM74.1002 49.3657L72.8393 44.6597C73.1368 44.58 73.3976 44.742 73.6217 45.1458C73.8657 45.5152 74.0855 46.0651 74.2811 46.7953C74.4695 47.4985 74.5541 48.0846 74.5348 48.5535C74.5426 49.0153 74.3977 49.286 74.1002 49.3657ZM78.6855 48.1371L71.0001 19.4549L76.4363 17.9983L84.1217 46.6805L78.6855 48.1371ZM74.1012 49.3654L72.8402 44.6595L77.4245 43.4311L78.6855 48.1371L74.1012 49.3654ZM74.1012 49.3654C73.7766 49.4524 73.5023 49.294 73.2782 48.8903C73.054 48.4865 72.8477 47.9331 72.6593 47.2299C72.4637 46.4996 72.3656 45.9172 72.365 45.4825C72.3573 45.0208 72.5157 44.7464 72.8402 44.6595L74.1012 49.3654ZM90.6282 44.937L82.9429 16.2548L88.3385 14.8091L96.0239 43.4913L90.6282 44.937ZM132.668 33.6726L131.407 28.9666L135.707 27.8143L136.968 32.5203L132.668 33.6726ZM114.735 52.9136C114.1 51.5184 113.49 50.1601 112.904 48.8387C112.345 47.5101 111.924 46.3184 111.641 45.2636C111.076 43.154 110.993 41.2197 111.391 39.4607C111.796 37.7287 112.631 36.2442 113.893 35.0072C115.156 33.7702 116.802 32.8799 118.83 32.3364C119.236 32.2277 119.736 32.0936 120.331 31.9342C120.954 31.7675 121.67 31.5755 122.482 31.3581C123.293 31.1407 124.199 30.8979 125.2 30.6298C126.2 30.3616 127.296 30.0681 128.486 29.7493L126.642 32.7653L124.587 25.0978C124.21 23.6914 123.751 22.626 123.209 21.9016C122.687 21.1429 121.973 20.6965 121.067 20.5623C120.189 20.4208 118.992 20.553 117.478 20.9589C116.45 21.2342 115.417 21.598 114.378 22.0502C113.36 22.468 112.572 22.882 112.015 23.2921L114.575 19.2146C114.56 19.9144 114.601 20.7729 114.7 21.7901C114.826 22.7999 114.989 23.8432 115.191 24.9197C115.385 25.9692 115.605 26.9537 115.852 27.8733C116.12 28.874 116.432 29.8773 116.789 30.8833C117.138 31.8623 117.472 32.7294 117.79 33.4848C118.136 34.2329 118.389 34.7448 118.55 35.0206L113.778 37.821C113.541 37.4786 113.226 36.8964 112.831 36.0744C112.464 35.2452 112.057 34.2672 111.611 33.1405C111.183 31.9794 110.792 30.7363 110.437 29.411C110.082 28.0858 109.792 26.7866 109.567 25.5135C109.362 24.2061 109.219 23.0267 109.141 21.9753C109.055 20.8968 109.009 20.0248 109.005 19.3593C109.636 18.9004 110.612 18.378 111.933 17.792C113.247 17.179 114.702 16.6587 116.298 16.2311C118.056 15.7601 119.604 15.5337 120.942 15.5519C122.3 15.5359 123.468 15.7302 124.447 16.1348C125.452 16.5322 126.314 17.0984 127.032 17.8334C127.744 18.5414 128.335 19.3974 128.807 20.4015C129.279 21.4056 129.675 22.5026 129.994 23.6926L132.668 33.6726C131.478 33.9914 130.234 34.3248 128.935 34.6727C127.664 35.0133 126.42 35.3466 125.203 35.6727C124.013 35.9916 122.958 36.2742 122.039 36.5206C121.146 36.7598 120.497 36.9337 120.091 37.0424C119.659 37.1584 119.2 37.3393 118.715 37.5851C118.237 37.8581 117.802 38.2355 117.41 38.7176C117.051 39.2194 116.821 39.8753 116.719 40.6853C116.625 41.5223 116.744 42.5628 117.077 43.807C117.338 44.7806 117.724 45.8948 118.234 47.1495C118.771 48.397 119.39 49.8401 120.09 51.4787L114.735 52.9136ZM136.968 32.5203L135.707 27.8143C136.005 27.7346 136.265 27.8966 136.49 28.3004C136.733 28.6698 136.953 29.2197 137.149 29.9499C137.337 30.6531 137.422 31.2392 137.403 31.7082C137.41 32.1699 137.266 32.4406 136.968 32.5203ZM136.975 32.5184L135.714 27.8125L145.329 25.2362L142.871 28.721L137.969 10.4245L143.364 8.97871L148.821 29.3443L136.975 32.5184ZM136.975 32.5184C136.65 32.6054 136.376 32.447 136.152 32.0433C135.928 31.6395 135.722 31.0861 135.533 30.3829C135.337 29.6526 135.239 29.0702 135.239 28.6355C135.231 28.1738 135.39 27.8994 135.714 27.8125L136.975 32.5184ZM132.489 9.28392L131.249 4.65906L136.686 3.20243L137.925 7.82728L132.489 9.28392ZM138.047 7.79467L136.807 3.16982L142.244 1.71318L143.483 6.33804L138.047 7.79467Z" fill="#DE0D0D"/>
</svg>
