<svg width="281" height="186" viewBox="0 0 281 186" fill="none" xmlns="http://www.w3.org/2000/svg">
<mask id="mask0_2130_654" style="mask-type:alpha" maskUnits="userSpaceOnUse" x="17" y="27" width="248" height="132">
<path d="M261.272 49.168C263.458 55.1728 262.551 62.2025 258.63 69.9512C254.707 77.7041 247.849 85.9948 238.495 94.3108C219.796 110.934 191.442 127.376 157.856 139.604C124.27 151.833 91.9834 157.471 66.9736 156.762C54.4624 156.407 43.8793 154.467 35.8898 151.051C27.9047 147.637 22.6898 142.837 20.5035 136.832C18.3171 130.827 19.2246 123.798 23.1455 116.049C27.0684 108.296 33.9264 100.005 43.2806 91.6893C61.9796 75.0656 90.333 58.6242 123.919 46.3955C157.505 34.1669 189.792 28.5291 214.802 29.2383C227.313 29.593 237.896 31.5334 245.885 34.949C253.871 38.3627 259.085 43.1633 261.272 49.168Z" stroke="#DE0D0D" stroke-width="4"/>
</mask>
<g mask="url(#mask0_2130_654)">
<path d="M272.779 45.5195C274.926 51.1927 274.153 57.8854 270.511 65.3136C266.867 72.7462 260.43 80.7322 251.608 88.7766C233.972 104.857 207.121 120.884 175.223 132.955C143.325 145.027 112.59 150.793 88.7274 150.417C76.7897 150.229 66.6785 148.505 59.0267 145.347C51.3793 142.191 46.3689 137.687 44.222 132.014C42.075 126.341 42.8482 119.648 46.49 112.22C50.134 104.787 56.5707 96.8016 65.393 88.7571C83.0283 72.6767 109.879 56.6499 141.778 44.5783C173.676 32.5068 204.41 26.741 228.273 27.1169C240.211 27.3049 250.322 29.0285 257.974 32.1863C265.621 35.3423 270.632 39.8463 272.779 45.5195Z" stroke="#DE0D0D" stroke-width="4"/>
</g>
</svg>
