<svg width="28" height="40" viewBox="0 0 28 40" fill="none" xmlns="http://www.w3.org/2000/svg">
<path d="M13.7083 18.6042C12.4099 18.6042 11.1646 18.0884 10.2465 17.1702C9.32831 16.2521 8.8125 15.0068 8.8125 13.7083C8.8125 12.4099 9.32831 11.1646 10.2465 10.2465C11.1646 9.32831 12.4099 8.8125 13.7083 8.8125C15.0068 8.8125 16.2521 9.32831 17.1702 10.2465C18.0884 11.1646 18.6042 12.4099 18.6042 13.7083C18.6042 14.3513 18.4775 14.9879 18.2315 15.5819C17.9855 16.1759 17.6248 16.7156 17.1702 17.1702C16.7156 17.6248 16.1759 17.9855 15.5819 18.2315C14.9879 18.4775 14.3513 18.6042 13.7083 18.6042ZM13.7083 0C10.0727 0 6.58589 1.44427 4.01508 4.01508C1.44427 6.58589 0 10.0727 0 13.7083C0 23.9896 13.7083 39.1667 13.7083 39.1667C13.7083 39.1667 27.4167 23.9896 27.4167 13.7083C27.4167 10.0727 25.9724 6.58589 23.4016 4.01508C20.8308 1.44427 17.344 0 13.7083 0Z" fill="#9C9C9C"/>
</svg>
