<svg width="19" height="19" viewBox="0 0 19 19" fill="none" xmlns="http://www.w3.org/2000/svg">
<g clip-path="url(#clip0_573_33)">
<path d="M6.65038 0C2.99516 0 0 2.98661 0 6.63138C0 8.04365 0.45106 9.35579 1.21467 10.4348L5.8387 18.4289C6.48641 19.2749 6.91676 19.1144 7.45522 18.3844L9.39835 15.0775C8.61282 14.6897 7.92806 14.1248 7.39803 13.4273C6.67323 12.478 6.26752 11.3237 6.23903 10.1297C4.4688 9.92959 3.116 8.455 3.116 6.63138C3.116 4.66868 4.68217 3.10726 6.65038 3.10726C7.93022 3.10726 9.0364 3.76979 9.6558 4.77109C10.6776 4.32742 11.8074 4.19414 12.9044 4.38786C11.9763 1.83711 9.5171 0 6.65038 0Z" fill="#364138"/>
<path d="M12.5645 5.22363C11.3443 5.05833 10.0613 5.35701 9.00772 6.15938C6.90062 7.76374 6.49079 10.7889 8.09534 12.896C9.59729 14.8682 12.3399 15.3438 14.4128 14.0811L14.8086 14.6009C14.7701 14.6905 14.7519 14.7793 14.7554 14.8611C14.7589 14.9429 14.7839 15.0158 14.8287 15.0748L17.7015 18.8472C17.7837 18.955 17.9269 19.0093 18.0998 18.9981C18.2727 18.9869 18.461 18.9112 18.6234 18.7875C18.7039 18.7263 18.7755 18.6552 18.8343 18.5781C18.893 18.5011 18.9377 18.4197 18.9659 18.3387C18.994 18.2576 19.005 18.1784 18.9982 18.1056C18.9914 18.0328 18.967 17.9679 18.9263 17.9145L16.0535 14.142C16.0086 14.0832 15.945 14.0397 15.867 14.0146C15.7891 13.9895 15.6987 13.9834 15.602 13.9967L15.2061 13.4767C16.975 11.8142 17.2461 9.04396 15.7444 7.07176C14.942 6.01802 13.7847 5.38893 12.5645 5.22363ZM12.422 6.27566C12.9089 6.3414 13.378 6.50275 13.8023 6.75043C14.2267 6.99812 14.5978 7.32725 14.8945 7.7189C15.193 8.10913 15.4114 8.55446 15.5373 9.02935C15.6633 9.50423 15.6941 9.9993 15.6282 10.4861C15.5622 10.973 15.4008 11.442 15.1531 11.8663C14.9054 12.2906 14.5764 12.6618 14.1848 12.9585C13.7946 13.257 13.3493 13.4754 12.8744 13.6013C12.3996 13.7272 11.9045 13.7581 11.4177 13.6921C10.9309 13.6262 10.4619 13.4648 10.0376 13.2171C9.61334 12.9694 9.24217 12.6404 8.9454 12.2489C8.64694 11.8587 8.42848 11.4134 8.30257 10.9385C8.17667 10.4637 8.14579 9.9686 8.21171 9.48178C8.27763 8.99496 8.43905 8.52595 8.6867 8.10168C8.93436 7.67741 9.26337 7.30623 9.65486 7.00944C10.045 6.71077 10.4903 6.49217 10.9652 6.36624C11.4401 6.24031 11.9352 6.20953 12.422 6.27566Z" fill="#364138"/>
</g>
<defs>
<clipPath id="clip0_573_33">
<rect width="19" height="19" fill="white"/>
</clipPath>
</defs>
</svg>
