<svg width="24" height="35" viewBox="0 0 24 35" fill="none" xmlns="http://www.w3.org/2000/svg">
<path d="M11.9583 16.2292C10.8256 16.2292 9.73933 15.7792 8.9384 14.9783C8.13746 14.1773 7.6875 13.091 7.6875 11.9583C7.6875 10.8256 8.13746 9.73933 8.9384 8.9384C9.73933 8.13746 10.8256 7.6875 11.9583 7.6875C13.091 7.6875 14.1773 8.13746 14.9783 8.9384C15.7792 9.73933 16.2292 10.8256 16.2292 11.9583C16.2292 12.5192 16.1187 13.0745 15.9041 13.5927C15.6894 14.1109 15.3749 14.5817 14.9783 14.9783C14.5817 15.3749 14.1109 15.6894 13.5927 15.9041C13.0745 16.1187 12.5192 16.2292 11.9583 16.2292ZM11.9583 0C8.78679 0 5.74514 1.25989 3.50251 3.50251C1.25989 5.74514 0 8.78679 0 11.9583C0 20.9271 11.9583 34.1667 11.9583 34.1667C11.9583 34.1667 23.9167 20.9271 23.9167 11.9583C23.9167 8.78679 22.6568 5.74514 20.4141 3.50251C18.1715 1.25989 15.1299 0 11.9583 0Z" fill="#414141"/>
</svg>
