<svg width="26" height="26" viewBox="0 0 26 26" fill="none" xmlns="http://www.w3.org/2000/svg">
<path d="M25.3149 19.1521C25.0193 18.8372 23.9754 17.906 22.0564 16.6741C20.1232 15.4314 18.6976 14.6565 18.2886 14.4758C18.2526 14.4599 18.2129 14.454 18.1738 14.4589C18.1347 14.4638 18.0976 14.4792 18.0666 14.5036C17.4079 15.0173 16.2989 15.961 16.2394 16.0119C15.8554 16.341 15.8554 16.341 15.541 16.2385C14.9882 16.0573 13.2709 15.1453 11.7744 13.6455C10.278 12.1457 9.31904 10.3858 9.13779 9.83358C9.03414 9.51866 9.03414 9.51866 9.36435 9.13463C9.41533 9.07516 10.3595 7.96614 10.8733 7.30797C10.8976 7.27698 10.9131 7.23993 10.918 7.20081C10.9229 7.16169 10.917 7.12198 10.901 7.08594C10.7203 6.67643 9.94548 5.25135 8.70279 3.31821C7.46916 1.39979 6.53912 0.355904 6.2242 0.0602399C6.1953 0.0329691 6.15958 0.013998 6.1208 0.00532561C6.08202 -0.00334679 6.04163 -0.00139933 6.00386 0.0109626C4.90305 0.389273 3.84092 0.871971 2.83199 1.45247C1.85801 2.01866 0.935909 2.66972 0.0764222 3.39807C0.0464195 3.42358 0.0239258 3.45677 0.0113532 3.49409C-0.00121939 3.53141 -0.00339655 3.57145 0.00505509 3.60991C0.123434 4.16159 0.689274 6.4646 2.44513 9.6546C4.23668 12.9103 5.47824 14.5784 8.1092 17.2003C10.7402 19.8222 12.4609 21.1385 15.72 22.93C18.91 24.6859 21.2141 25.2523 21.7647 25.3695C21.8032 25.3779 21.8433 25.3757 21.8807 25.3631C21.9181 25.3506 21.9514 25.3281 21.9771 25.2982C22.7053 24.4387 23.3562 23.5166 23.9221 22.5426C24.5025 21.5336 24.9852 20.4715 25.3636 19.3707C25.3757 19.3333 25.3776 19.2932 25.369 19.2548C25.3605 19.2163 25.3418 19.1809 25.3149 19.1521Z" fill="white"/>
</svg>
