<svg width="20" height="26" viewBox="0 0 20 26" fill="none" xmlns="http://www.w3.org/2000/svg">
<path d="M9.96876 0C7.32584 0.00311793 4.79206 1.0544 2.92323 2.92322C1.0544 4.79205 0.00312418 7.32583 6.25691e-06 9.96875C-0.00242371 12.1284 0.702991 14.2294 2.00826 15.95C2.00826 15.95 2.28013 16.308 2.32454 16.3596L9.96876 25.375L17.6166 16.3551C17.6565 16.3071 17.9293 15.95 17.9293 15.95L17.9302 15.9473C19.2345 14.2273 19.9396 12.1274 19.9375 9.96875C19.9344 7.32583 18.8831 4.79205 17.0143 2.92322C15.1455 1.0544 12.6117 0.00311793 9.96876 0ZM9.96876 13.5938C9.2518 13.5938 8.55094 13.3811 7.95481 12.9828C7.35869 12.5845 6.89406 12.0184 6.61969 11.356C6.34532 10.6936 6.27354 9.96473 6.41341 9.26155C6.55328 8.55837 6.89853 7.91245 7.40549 7.40549C7.91246 6.89852 8.55837 6.55327 9.26155 6.4134C9.96473 6.27353 10.6936 6.34532 11.356 6.61969C12.0184 6.89405 12.5845 7.35868 12.9828 7.95481C13.3812 8.55094 13.5938 9.25179 13.5938 9.96875C13.5926 10.9298 13.2103 11.8511 12.5307 12.5307C11.8511 13.2102 10.9298 13.5926 9.96876 13.5938Z" fill="white"/>
</svg>
